<?xml version="1.0"?>
<svg xmlns:rdf="http://www.w3.org/1999/02/22-rdf-syntax-ns#" xmlns="http://www.w3.org/2000/svg" xmlns:cc="http://web.resource.org/cc/" xmlns:xlink="http://www.w3.org/1999/xlink" xmlns:dc="http://purl.org/dc/elements/1.1/" xmlns:svg="http://www.w3.org/2000/svg" id="gnome_with_trumpet_xA0_Image_1_" style="enable-background:new 0 0 197.298 218.913" xml:space="preserve" viewBox="0 0 197.298 218.913" version="1.1" y="0px" x="0px">
<g clip-rule="evenodd" fill-rule="evenodd">
	<path d="m76.1 18.725c1.006-0.175 1.073 0.59 1.87 0.624-1.544 5.132 4.205 4.693 1.872 8.731 1.562 0.969 3.045 1.572 1.87 3.741-2.525-0.67-4.334-0.67-6.86 0-0.628-0.902 1.259-1.831 1.249-1.87-0.112-0.407-1.876-0.745-1.872-0.624-0.034-0.846 3.011-3.156 0-3.742 1.005-1.903 1.084-4.736 1.871-6.86zm1.246 6.235c-0.042 0.008 0.039 0.58 0 0.625-2.962 3.384 2.995-1.152 0-0.625z"/>
	<path d="m64.874 41.176c2.146-1.699 6.057 0.156 6.236 2.495-2.95 1.643-4.254-1.362-6.236-2.495z"/>
	<path d="m95.432 41.8c1.571-1.732 2.739 2.214 3.117 3.741-2.343 0.058-1.448-3.124-3.117-3.741z"/>
	<path d="m59.885 41.8c1.669 1.449 2.612 3.624 3.742 5.611-2.325-0.608-5.104-3.307-3.742-5.611z"/>
	<path d="m74.228 41.8c1.87-0.225 1.238 1.843 2.495 2.494 2.181 1.129 6.36-1.487 7.483 2.495-3.453-0.137-3.539-1.91-6.236 0-0.7-2.053-6.002-1.956-3.742-4.989z"/>
	<path d="m64.25 44.294c2.811-0.024 3.68 3.15 1.87 4.365-1.509-0.568-1.65-2.506-1.87-4.365z"/>
	<path d="m94.808 46.789c-0.343 2.487-0.343 1.877 0 4.364-1.14-1.147-2.465-2.107-3.118-3.742 1.763 0.516 1.616-0.878 3.118-0.622z"/>
	<path d="m102.29 47.412c1.779 1.131 2.011 3.811 2.494 6.236-1.59-1.312-2.37-3.446-2.49-6.236z"/>
	<path d="m72.981 49.283c2.83 2.784 7.876 3.349 8.73 8.108-3.46-2.153-7.773-3.453-8.73-8.108z"/>
	<path d="m86.7 52.401c1.098 0.151 1.422 1.073 1.248 2.494-1.942 0.292-2.23-1.567-1.248-2.494z"/>
	<path d="m94.808 56.767c1.245-1.604 2.528 2.003 2.494 3.742-1.836-0.243-1.219-2.939-2.494-3.742z"/>
	<path d="m117.88 204.57c2.481 0.456 2.507 0.456 4.989 0 1.53 1.984-0.224 4.856-1.249 6.237-1.469 0.013-1.834-1.076-3.74-0.624 0.563-1.122 2.51-0.409 3.116-1.249 0.071-0.094-2.322-1.654 0.624-1.87-0.34-1.74-5.03 0.87-3.74-2.5z"/>
	<path d="m119.13 208.31h-6.234c0.52-2.25 5.89-2.57 6.23 0z"/>
	<path d="m116.01 209.56c-1.885 1.439-6.43 0.221-9.354 0.625 2.66-2.78 5.66-0.02 9.35-0.62z"/>
	<path d="m113.52 213.3c-0.086 1.784-2.601 1.14-4.364 1.246-0.51-2.37 2.94-0.8 4.36-1.25z"/>
	<path d="m181.49 0.016c-0.784 4.734 2.07 5.829 1.87 9.978-2.769 6.065-9.592 7.76-16.212 9.978-8.755 2.934-18.842 4.739-27.441 6.237-4.936 0.859-7.85 3.021-10.603 3.118-0.046-0.275-0.065-0.5-0.084-0.723-0.063-0.043-0.132-0.066-0.192-0.125-0.868-0.825-1.848-1.374-2.888-1.389-0.647 0.14-1.305 0.353-2.063 0.625-0.292 0.105-0.548 0.079-0.773-0.005-0.066 0.164-0.135 0.302-0.201 0.491-0.35-0.267-0.756-0.475-1.207-0.638-1.195 0.052-2.274 0.976-3.464 1.114-1.076 0.125-2.114 0.114-3.178 0.037-3.042 2.089-8.871 1.114-10.271 4.979-2.654-0.369-4.125 0.448-6.236 0.623-1.052-1.125-1.479-2.423-1.798-3.8-0.005-0.003-0.01-0.003-0.015-0.005-1.323-0.784-1.931-1.873-2.292-3.314-0.187-0.267-0.383-0.525-0.549-0.808-0.717-1.219-1.304-2.158-2.38-2.508-0.438-0.104-0.905-0.165-1.434-0.139-0.354 0.018-0.613-0.095-0.816-0.259-2.028 0.435-3.143 1.152-5.682-1.016 0.771-1.723 0.393-2.622 0.443-5.065-1.803-1.854-4.163 0.148-5.432-1.171 0.124-2.37 2.621-2.366 2.494-4.989-4.471-2.794-11.749-3.77-18.085-4.366-11.573-1.087-22.584 2.54-29.935 6.237-4.815 5.163-10.237 9.719-16.838 13.096-0.287 7.299-11.918 12.982-14.358 21.827-0.483 1.752-0.909 5.625-1.248 8.106-0.967 7.072-1.666 12.232 4.365 13.096 0.49-5.538 4.616-7.44 5.613-12.472 6.274-2.873 13.034-5.258 18.709-8.73 5.06 4.293 11.277 7.431 19.333 8.73 1.407 5.868 7.569 6.982 14.344 7.483-1.317 3.833 1.577 5.107 1.87 7.483 0.181 1.47 0.249 5.714 0 8.107-0.164 1.575-1.749 2.227-1.247 4.366 1.148 4.903 3.678 3.21 7.483 5.612 1.047 0.661 0.813 2.006 1.872 2.496 1.779 0.822 4.049 0.308 5.613 1.247 4.192 2.515 7.864 8.663 6.236 13.096-5.291 1.568-7.445 6.275-13.096 7.483-0.818 3.52 2.473 2.931 2.494 5.613-5.806 3.22-5.602 9.843-4.366 17.461 3.731 1.051 6.221 3.342 8.107 6.237 0.354 6.923-3.56 10.77-4.366 18.085-7.641 4.208-10.842 12.855-9.978 25.569 0.211 1.657 2.316 1.423 2.494 3.118-0.61 0.843-2.103 0.807-2.494 1.87 0.344 9.491-3.546 14.746-5.613 21.826 1.356 1.764 2.485 3.753 4.366 4.991 11.815-0.525 24.577-0.891 37.418-1.873-2.792-1.365-8.364 0.051-10.602-1.87 1.66-0.005 1.591-1.735 2.496-2.494v2.494c3.539-0.748 7.129 1.102 10.601 1.249 1.361 0.056 4.903 1.027 5.614-1.249-4.993-0.621-11.511 0.284-14.969-1.87 2.549 0.678 3.076-0.667 3.743-1.873 0.81 1.465-0.318 1.398 1.248 2.495 1.203-0.822 9.509 1.03 9.355-0.622-1.293-0.37-4.099 0.77-4.366-0.624 3.614-2.354 14.567 1.835 13.72-1.87-3.03 1.35-9.303 0.584-12.473 0-2.34 0.581-5.617 3.591-6.86 0 3.431-2.119 6.416-4.604 10.604-4.367v-3.74c-7.062-4.175-14.684 4.115-21.828 3.74-3.135-0.165-5.571-2.149-8.732-3.74 3.408-11.146 9.951-19.154 13.096-30.558 1.087 0.046 1.94-0.14 2.495-0.624 0.16-2.543 2.326-3.081 1.872-6.237 3.782-1.622 5.988-4.821 8.73-7.483 6.415 0.685 6.019 6.182 8.107 10.602 0.721 1.527 5.849 7.385 6.859 8.107 1.259 0.901 3.57 0.482 4.991 1.246 2.081 1.122 3.826 3.088 6.234 4.367 2.629 1.394 4.938 2.413 7.483 3.74 1.538 3.246 2.692 6.869 4.367 9.978 7.06 0.201 10.714-3.004 15.591-4.988 4.776 2.71 11.615 0.53 14.967-1.87 2.353 2.162 7.461 1.37 10.602 1.248-0.809-6.349-8.19-9.736-14.969-10.602-1.432-0.186-2.969 0.353-4.364 0-5.362-1.363-10.712-6.154-16.216-3.743-6.709-6.804-11.147-15.875-18.707-21.825 0.487-2.571-0.959-3.203-0.624-5.613-4.464-2.604-9.229-4.908-10.602-10.603 1.728-3.469 4.986-5.407 6.237-9.355 5.555-0.473 7.11-4.946 11.848-6.235 0.619-2.291 2.297-3.524 2.494-6.237-2.509-2.062-5.58-3.565-7.482-6.234 2.015-2.472-0.355-4.724-1.871-5.613 4.956-7.14-2.307-15.741-4.988-21.204 5.534-7.146 6.798-18.561 8.729-29.312-0.346-2.149-2.868-2.122-3.119-4.365 13.081-0.571 31.642 0.527 38.044-8.107 1.791-2.416 0.902-5.144 3.118-7.483 9.414 0.977 19.385 1.401 17.461 13.719 1.033 1.044 3.662 0.496 5.613 0.625 7.43-13.511 4.92-48.962-11.84-48.077zm-102.27 121.6c2.189-0.111 2.051 2.106 3.741 2.494-0.705 1.07-4.313-0.21-3.741-2.49zm34.923-76.078c-2.542-0.368-3.996-1.823-4.364-4.366 1.97-1.202 3.61 2.36 4.36 4.366zm-5.61 22.45c-3.132-0.609-5.003-2.48-5.612-5.612 4.006 0.679 3.218-3.436 6.86-3.119-0.454-1.702 1.238-1.255 1.246-2.495 0.146-3.057-1.099-4.721-0.622-8.107 1.551-0.097 1.929 0.979 3.116 1.247-1.2 6.5-3.5 11.896-5 18.086zm-3.74 29.934c0.213-2.698 4.939-0.883 6.236-2.495 1.41 1.863-3.51 2.711-6.24 2.495zm-3.75-21.827c2.922 1.164-0.452 3.743-0.623 5.613-2.703-0.945 0.45-3.743 0.62-5.613zm-0.62-20.579c1.109 1.177 2.054 2.519 1.871 4.989-0.85-1.441-1.79-2.78-1.87-4.989zm1.25 18.708c1.238 1.04 0.793-0.056 2.494 0 0.97 1.876-3.46 1.876-2.49 0zm0.62-19.333c0.925 0.53 1.341 1.57 1.247 3.119-0.93-0.531-1.34-1.57-1.25-3.119zm10.61 12.474c-0.848-0.193-0.519-1.562-0.625-2.495 2.17-0.558 1.06 2.034 0.62 2.495zm-3.75-9.978c-2.427-0.277-1.863-3.542-2.495-5.613 1.089 0.573 1.376 1.949 1.249 3.742 0.581-0.457 0.944-1.134 1.246-1.872 1.01-0.102 1.01 3.844-0.01 3.743zm-1.24-15.591c-0.533-0.116-0.589 0.242-0.624 0.623-0.731-0.1-0.528-1.137-0.625-1.871 1.06-0.229 1.17 0.487 1.25 1.248zm-36.801 21.827c-1.896-0.598-6.324 1.335-6.236-1.247h6.236v1.247zm-8.106-10.602c0.079-1.119-0.764-1.315-0.625-2.494 2.847 0.982 8.976 3.933 9.355-1.248-6.273 3.489-14.166-2.98-13.721-8.107 2.778-0.491 4.147 0.426 5.613 1.247-1.122-8.779 6.275-18.246 11.225-24.945 3.45-0.123 5.24 1.412 7.485 2.494-0.718 0.737-0.707 2.205-0.625 3.742 1.227 2.516 5.739 1.746 9.355 1.872 0.185 1.639-2.42 0.491-1.872 2.495 0.568 1.706 2.186-1.106 3.119 0.624-1.435 1.474-3.825 1.995-5.613 3.117 0.938 2.329 2.226 5.704 1.248 8.108-1.962 0.298-2.438-0.888-3.742-1.248-1.475 1.416 0.779 1.865 1.872 2.495-0.951 1.31-3.875-0.657-3.742-2.495-4.535 5.108 10.625 6.697 7.484-1.872 1.303-0.264 1.651 0.427 2.495 0.624v-3.119c-0.542-1.841-0.934 1.448-2.495 0.625 1.198-0.882 1.128-3.03 1.872-4.366h2.495c1.54 4.059-0.854 8.395-3.743 9.978 2.607 1.956 5.338-1.294 4.99-4.365 2.25 2.323 6.01 3.136 6.236 7.483-2.037 0.165-1.322-2.42-3.119-2.495-0.932 4.466 4.308 2.761 4.989 5.613 2.315-3.172-1.812-5.236-1.87-8.108 1.762 0.515 1.615-0.879 3.117-0.624 0.961 1.951-0.271 6.094 1.871 6.86-0.142 0.898-1.861 0.217-1.871 1.247 0.548 2.987 5.447 1.62 4.366 6.236-2.818-2.633-2.459-1.117-4.989-4.365 0.572 2.961 2.049 5.018 1.87 8.73-2.804-2.6-5.328-5.481-6.236-9.978-2.36 1.3-0.926 2.053-3.118 0-0.066 2.768 1.745 3.659 1.248 6.859 2.095 0.641 0.97-1.938 1.247-3.117 0.212 1.658 2.315 1.425 2.495 3.117-1.502-0.255-1.356 1.14-3.119 0.624 0.421 1.657 0.982 3.176 1.872 4.365-1.434 1.992-1.549-2.559-2.494-3.117-1.865 2.312 2.341 3.871 1.247 7.483-4.009-0.751-4.448-5.176-6.237-7.483 0.59 0.76-2.695 1.389-1.87-1.248-1.751 0.952-2.276 3.129-3.119 4.989-2.704-0.206-3.258-2.562-4.365-4.366-1.591 1.034 0.007 4.101 1.247 4.366-9.79 2.92-14.739-4.388-21.836-6.233zm36.171 43.031c-1.188 1.735-8.732 0.35-11.849 0 2.847-1.374 8.849-0.55 11.849 0zm-8.108-36.171h-1.248v-2.494h1.248v2.494zm1.871 9.354c2.593 0.941 5.782 1.287 6.237 4.366-2.624-0.91-5.055-2.014-6.237-4.366zm-0.624-8.107v-1.247h1.247v1.247h-1.247zm-13.096 6.86c1.864-2.412 9.754-1.374 11.849 0-0.061 2.731-3.766 0.077-4.989 0-2.891-0.65-5.398 1.149-6.86 0zm11.225 81.698c1.718 1.192 3.272 2.55 4.99 3.742-0.818 2.14-5.411-0.71-4.99-3.74zm0.624-24.32c2.078 1.87 6.441 1.456 7.483 4.364-3.102-0.85-6.966-0.93-7.483-4.36zm4.989 29.93c1.391-1.946 2.881 1.229 4.366 1.249-1.27 1.83-3.262-0.85-4.365-1.25zm8.735-24.94c0.093-1.365 1.572-1.34 3.12-1.248 0.63 2.09-1.95 0.97-3.12 1.25zm2.49 1.87c0.116-0.505 0.624-0.621 0.624-1.248h1.246c0.29 1.33-0.89 1.19-1.87 1.25zm1.87-3.75c1.446-0.198 2.396 0.102 3.118 0.624 0.11 1.02-4.08 1.27-3.12-0.62zm1.87 3.12c0.091-0.241 1.319-1.102 1.873-0.624 1.24 1.07-2.76 3-1.87 0.62zm1.88-2.49c1.004-0.175 1.073 0.589 1.869 0.624 0.24 1.21-2.85 0.91-1.87-0.62zm3.11 1.25c0.909-0.967 2.434-1.309 4.367-1.248-0.03 1.92-3.31 2.23-4.37 1.25zm12.47-23.08c-2.42 3.165-7.975 3.628-12.475 3.741-9.931 0.248-22.479-2.192-29.31-4.989 0.102-0.725-0.137-1.109-0.623-1.247 0.276-0.555 0.547-1.115 1.247-1.248 8.384 2.346 19.979 5.865 30.559 4.989 3.94-0.32 7.06-2.37 10.61-1.24zm-13.72-11.848v-1.87h2.495c-0.33 0.501-0.649 1.012-0.624 1.87h-1.88zm6.24-9.978c3.981 1.938-1.353 9.192-3.74 4.989 0.56-2.355 4.37-1.453 3.74-4.989zm6.24-35.548c-2.586-0.949-5.488-1.577-9.354-1.247-0.53-5.5-5.194-6.863-6.861-11.225 2.891-0.048 0.137-2.827 0.624-4.366 2.34-0.47 1.36 2.383 3.118 2.494 3.162-0.882-1.402-3.425 0.625-4.989 2.629 0.074 3.154 2.251 4.988 3.119 2.267-0.398-1.448-2.916 0.622-3.119 1.894-0.229 1.297 2.031 1.873 3.119 2.604-0.098 2.339-3.064 3.118-4.989 2.378-0.292 1.18 4.871 0.622 5.612 2.7 4.335 1.55 10.233 0.62 15.591zm2.49-13.096c0.886 0.054 1.767 0.103 1.87-0.623 1.389 0.261 0.49 3.309 0 3.742-1.94 0.285-1.99-1.333-1.87-3.119zm0 6.86c0.15-1.098 1.074-1.421 2.495-1.248-0.102 0.725 0.137 1.11 0.624 1.248-0.28 1.982-2.68 1.235-3.11 0zm11.85-4.366v4.99c-1.951-0.128-4.58 0.42-5.613-0.624 2.464-2.802-0.608-4.464 0-7.483-0.083 0.414 4.027-1.232 0.622-1.872 1.065-1.62 4.377-0.267 4.991 0.625-0.152 1.096-1.073 1.421-2.494 1.247v2.494c0.19 0.847 1.56 0.518 2.49 0.623zm11.22 2.496c-1.981 0.769-5.669 2.289-7.483 1.246 1.358-1.082 3.046-3.164 0-3.742 0.726-1.146 3.31-0.431 2.495-3.117-0.411-1.868-1.332 0.596-2.495 0-0.043-4.474 6.113-2.016 7.483-0.625-0.8 1.811-0.8 4.428 0 6.238zm4.37-1.871c-1.035-2.827 0.231-4.513-0.624-6.86 2.076-1.034 4.283-0.147 6.235 0.624-0.09 3.854-2.37 5.526-5.61 6.236z"/>
</g>
<metadata><rdf:RDF><cc:Work><dc:format>image/svg+xml</dc:format><dc:type rdf:resource="http://purl.org/dc/dcmitype/StillImage"/><cc:license rdf:resource="http://creativecommons.org/licenses/publicdomain/"/><dc:publisher><cc:Agent rdf:about="http://openclipart.org/"><dc:title>Openclipart</dc:title></cc:Agent></dc:publisher><dc:title>gnome playing horn</dc:title><dc:date>2011-02-26T20:27:03</dc:date><dc:description>a one color old illustration of a gnome playing a horn</dc:description><dc:source>http://openclipart.org/detail/122983/gnome-playing-horn-by-johnny_automatic</dc:source><dc:creator><cc:Agent><dc:title>johnny_automatic</dc:title></cc:Agent></dc:creator><dc:subject><rdf:Bag><rdf:li>clip art</rdf:li><rdf:li>clipart</rdf:li><rdf:li>gnome</rdf:li><rdf:li>horn</rdf:li><rdf:li>music</rdf:li><rdf:li>playing</rdf:li></rdf:Bag></dc:subject></cc:Work><cc:License rdf:about="http://creativecommons.org/licenses/publicdomain/"><cc:permits rdf:resource="http://creativecommons.org/ns#Reproduction"/><cc:permits rdf:resource="http://creativecommons.org/ns#Distribution"/><cc:permits rdf:resource="http://creativecommons.org/ns#DerivativeWorks"/></cc:License></rdf:RDF></metadata></svg>
